HIERARCHY
ROOT pelvis
{
	OFFSET 0.000000 0.000000 0.000000
	CHANNELS 6 Xposition Yposition Zposition Zrotation Xrotation Yrotation
	JOINT lfemur
	{
		OFFSET 11.446000 0.000000 0.000000
		CHANNELS 3 Zrotation Xrotation Yrotation
		JOINT ltibia
		{
			OFFSET 0.000000 -42.030400 0.000000
			CHANNELS 3 Zrotation Xrotation Yrotation
			JOINT lfoot
			{
				OFFSET 0.000000 -39.930200 0.000000
				CHANNELS 3 Zrotation Xrotation Yrotation
				JOINT ltoes
				{
					OFFSET 0.000000 0.000000 11.775800
					CHANNELS 3 Zrotation Xrotation Yrotation
					End Site
					{
					    OFFSET 0.000000 0.000000 5.000000
					}
				}
			}
		}
	}
	JOINT rfemur
	{
		OFFSET -11.446000 0.000000 0.000000
		CHANNELS 3 Zrotation Xrotation Yrotation
		JOINT rtibia
		{
			OFFSET 0.000000 -42.030400 0.000000
			CHANNELS 3 Zrotation Xrotation Yrotation
			JOINT rfoot
			{
				OFFSET 0.000000 -39.930200 0.000000
				CHANNELS 3 Zrotation Xrotation Yrotation
				JOINT rtoes
				{
					OFFSET 0.000000 0.000000 11.775800
					CHANNELS 3 Zrotation Xrotation Yrotation
					End Site
					{
					    OFFSET 0.000000 0.000000 5.000000
					}
				}
			}
		}
	}
	JOINT thorax
	{
		OFFSET 0.000000 11.255600 -5.000000
		CHANNELS 3 Zrotation Xrotation Yrotation
		JOINT head
		{
			OFFSET 0.000000 43.799300 0.000000
			CHANNELS 3 Zrotation Xrotation Yrotation
			End Site
			{
			    OFFSET 0.000000 5.000000 0.000000
			}
		}
		JOINT lclavicle
		{
			OFFSET 0.000000 39.863000 0.000000
			CHANNELS 3 Zrotation Xrotation Yrotation
			JOINT lhumerus
			{
				OFFSET 17.380600 4.958300 0.000000
				CHANNELS 3 Zrotation Xrotation Yrotation
				JOINT lradius
				{
					OFFSET 0.000000 -27.561300 0.000000
					CHANNELS 3 Zrotation Xrotation Yrotation
					JOINT lhand
					{
						OFFSET 0.000000 -26.933000 0.000000
						CHANNELS 3 Zrotation Xrotation Yrotation
						End Site
						{
						    OFFSET 0.000000 -5.000000 0.000000
						}
					}
				}
			}
		}
		JOINT rclavicle
		{
			OFFSET 0.000000 39.863000 0.000000
			CHANNELS 3 Zrotation Xrotation Yrotation
			JOINT rhumerus
			{
				OFFSET -17.380600 4.958300 0.000000
				CHANNELS 3 Zrotation Xrotation Yrotation
				JOINT rradius
				{
					OFFSET 0.000000 -27.561300 0.000000
					CHANNELS 3 Zrotation Xrotation Yrotation
					JOINT rhand
					{
						OFFSET 0.000000 -26.933000 0.000000
						CHANNELS 3 Zrotation Xrotation Yrotation
						End Site
						{
						    OFFSET 0.000000 -5.000000 0.000000
						}
					}
				}
			}
		}
	}
}
MOTION
Frames:	9
Frame Time:	0.0333333
-25.1939 81.5222 14.6532 -7.87843 1.31513 35.3153 2.70633 -22.2249 -1.14014 169.34 84.5969 -168.877 3.86861 8.09137 -8.69723 6.56981e-015 -5 2.39453e-015 7.97548 -17.9258 1.77943 -0.421709 46.2799 0.20958 -3.44076 -17.2201 -10.6036 -1.55063e-015 -5 9.57811e-015 5.70526 12.8774 1.26001 0.0398651 -22.2038 -6.2519 0 4.77083e-015 -0 11.2702 3.27825 -33.1074 93.2049 -52.4977 69.515 -0.433317 2.60712 18.8957 0 4.77083e-015 -0 -17.9118 -7.27891 30.3942 -120.935 -45.158 -93.0019 0.0915048 1.2134 -8.65756 
-21.3814 82.2403 21.2478 -8.94449 1.41448 35.9733 4.83476 -31.1522 2.39897 168.06 85.218 -167.67 3.21787 3.71124 -9.22218 -3.18055e-015 -5 -0 9.36615 -11.1766 2.58351 -0.33953 42.6969 -0.00318217 -3.18042 -16.2108 -11.0011 1.86854e-015 -5 3.1927e-015 6.72801 12.7048 4.10208 -0.348534 -23.873 -7.56736 1.59028e-015 0 3.18055e-015 9.98769 5.77231 -34.0692 99.7311 -51.6008 75.163 -0.577579 2.99507 21.8467 1.59028e-015 0 3.18055e-015 -17.9934 -9.25374 28.1399 -124.003 -43.6528 -95.4714 0.0953037 1.2382 -8.83716 
-16.6406 84.1139 28.1231 -9.17425 1.91904 37.1642 3.97171 -36.8585 3.53936 17.795 87.1233 -17.4934 2.47576 1.23508 -8.39969 -3.18055e-015 -5 -0 9.32106 -4.61434 2.83186 -0.269179 38.8132 -0.0211935 -1.56407 -9.23585 -9.31054 4.77083e-015 -5 -0 7.2093 11.763 5.68965 -1.54793 -24.0417 -8.40496 1.59028e-015 -6.36111e-015 3.18055e-015 8.28609 8.17893 -33.9137 101.914 -51.2014 77.0414 -0.539802 2.89934 21.113 1.59028e-015 -6.36111e-015 3.18055e-015 -17.8172 -10.8586 28.0125 -125.554 -42.8217 -96.7041 0.119667 1.38591 -9.90377 
-11.1099 86.5972 35.2256 -8.98126 2.73464 39.5023 0.73517 -39.3971 2.2664 2.52155 74.2719 -2.33623 2.09426 2.26996 -6.14723 -2.90229e-015 -5 3.1927e-015 8.08114 1.69358 2.69221 -0.181516 32.7304 -0.0288933 -0.21523 3.06988 -4.76204 -3.18055e-015 -5 -0 7.75913 10.0625 5.91523 -1.20918 -21.539 -8.81479 -3.18055e-015 3.18055e-015 3.18055e-015 6.6982 11.2674 -34.7176 102.913 -51.0007 77.8998 -0.475304 2.72653 19.797 -3.18055e-015 3.18055e-015 3.18055e-015 -17.2802 -10.9293 29.3031 -125.843 -42.6614 -96.9325 0.0986477 1.25942 -8.99115 
-5.16915 88.8946 42.8578 -8.76843 3.33385 41.3707 -1.72714 -38.8881 1.41384 0.833076 57.6804 -0.786454 2.02039 3.02693 -6.59812 -5.32736e-015 -5 -6.38541e-015 7.05069 8.65982 2.6578 -0.100194 24.71 0.359908 -4.34978 20.0173 0.885684 -3.45882e-015 -5 -3.1927e-015 8.07336 7.98932 5.95553 -3.11199 -20.9466 -9.51916 1.59028e-015 1.59028e-015 -3.18055e-015 6.18985 14.9935 -35.5538 104.247 -50.7153 79.0419 -0.469882 2.71149 19.6834 1.59028e-015 1.59028e-015 -3.18055e-015 -17.2047 -9.28255 31.3673 -125.543 -42.8278 -96.6952 0.121862 1.39845 -9.99448 
0.287232 90.2895 50.8337 -9.3901 2.80365 41.8904 -0.980817 -36.7159 1.46381 0.312299 40.5645 -0.349696 2.2028 6.18166 -7.08593 -1.86854e-015 -5 -3.1927e-015 7.87847 13.1859 5.28439 -0.0746957 20.882 -0.243317 -2.48 32.4455 1.8545 6.22198e-015 -5 -1.59635e-015 9.12073 7.08437 6.58166 -2.80535 -20.2645 -9.45671 1.59028e-015 -1.59028e-015 -3.18055e-015 6.95858 17.0103 -36.2645 105.76 -50.3664 80.3346 -0.468826 2.70846 19.6598 1.59028e-015 -1.59028e-015 -3.18055e-015 -18.2495 -8.23978 34.8342 -125.729 -42.725 -96.8418 0.136868 1.48121 -10.5934 
5.60758 90.661 58.0727 -9.28374 3.18861 42.019 -0.825354 -34.6081 2.38491 0.135448 27.8488 -0.185297 2.4695 10.019 -6.78524 2.54437e-015 -5 6.38541e-015 8.07835 14.2865 5.78896 -0.118298 26.1256 -0.198649 -1.58644 29.4726 0.127327 2.97186e-015 -5 -2.39453e-015 8.37197 6.55933 7.227 -1.8283 -20.2313 -9.71142 -1.59028e-015 -4.77083e-015 -0 8.2477 17.4186 -36.7203 107.586 -49.9088 81.8888 -0.37177 2.42009 17.4908 -1.59028e-015 -4.77083e-015 -0 -19.2883 -7.5207 38.8228 -125.254 -42.9863 -96.466 0.155136 1.57537 -11.2761 
10.5425 90.0842 65.2175 -8.78152 2.65943 42.7655 -0.682041 -32.8491 3.77081 0.0984139 23.5436 -0.123947 2.48657 12.4719 -5.32474 5.56525e-016 -5 6.38541e-015 8.8228 12.7924 4.80713 -0.26205 37.3255 -0.0202723 0.282047 23.635 -4.04997 6.11763e-015 -5 -2.79362e-015 7.65982 7.27948 6.31481 0.0332348 -20.8049 -9.09477 8.82781e-032 -1.59028e-015 3.18055e-015 10.3127 16.1445 -38.0969 110.344 -49.1379 84.2231 -0.399456 2.50617 18.135 8.82781e-032 -1.59028e-015 3.18055e-015 -19.3905 -7.31489 42.394 -123.011 -44.1594 -94.6765 0.116978 1.3702 -9.78934 
15.6213 88.4241 72.1155 -6.17511 2.85949 44.8274 -2.90189 -29.2773 5.17987 0.101271 23.63 -0.0782533 4.15768 15.3794 -10.9103 -4.49257e-015 -5 3.1927e-015 7.14863 9.21354 1.12583 -0.643095 52.7683 0.281103 0.360544 22.3362 -4.06538 -6.36981e-015 -5 -9.9772e-017 4.52533 9.28525 4.37227 1.91726 -21.2333 -9.00755 -1.59028e-015 3.18055e-015 -0 13.4031 12.4251 -40.0432 112.914 -48.328 86.383 -0.48634 2.75685 20.0267 -1.59028e-015 3.18055e-015 -0 -18.6029 -6.4801 44.6285 -120.102 -45.5374 -92.3244 0.1055 1.30225 -9.29763 
